<svg xmlns="http://www.w3.org/2000/svg" viewBox="0 0 192 192" width="192" height="192">
  <!-- Background circle -->
  <circle cx="96" cy="96" r="96" fill="#0ea5e9"/>
  
  <!-- Medical cross -->
  <g fill="#ffffff">
    <!-- Horizontal bar -->
    <rect x="46" y="76" width="100" height="40" rx="20"/>
    <!-- Vertical bar -->
    <rect x="76" y="46" width="40" height="100" rx="20"/>
  </g>
  
  <!-- Heart icon overlay -->
  <path d="M96 130c-2-2-20-20-20-35 0-10 8-18 18-18s18 8 18 18c0 15-18 33-20 35z" fill="#ef4444" opacity="0.8"/>
  <path d="M96 130c2-2 20-20 20-35 0-10-8-18-18-18s-18 8-18 18c0 15 18 33 20 35z" fill="#ef4444" opacity="0.8"/>
</svg>